<svg xmlns="http://www.w3.org/2000/svg" xmlns:xlink="http://www.w3.org/1999/xlink" version="1.1" x="0px" y="0px" viewBox="0 0 60 60" enable-background="new 0 0 60 60" xml:space="preserve"><g><path d="M60,13v-2.84C60,6.76,57.24,4,53.84,4H51c-0.55,0-1,0.45-1,1H39V2.84C39,1.27,37.73,0,36.16,0H23.84   C22.27,0,21,1.27,21,2.84V5H10c0-0.55-0.45-1-1-1H6.16C2.76,4,0,6.76,0,10.16V13c0,0.55,0.45,1,1,1v36c-0.55,0-1,0.45-1,1v2.84   C0,57.24,2.76,60,6.16,60H9c0.55,0,1-0.45,1-1h40c0,0.55,0.45,1,1,1h2.84c3.4,0,6.16-2.76,6.16-6.16V51c0-0.55-0.45-1-1-1V14   C59.55,14,60,13.55,60,13z M53.84,6C56.13,6,58,7.87,58,10.16V12h-4h-2v-2V6H53.84z M47,53V25h2v28H47z M43,53V25h2v28H43z M39,53   V25h2v28H39z M35,53V25h2v28H35z M31,53V25h2v28H31z M27,53V25h2v28H27z M23,53V25h2v28H23z M19,53V25h2v28H19z M15,53V25h2v28H15z    M11,53V25h2v28H11z M7,25h2v25H7V25z M51,50V25h2v25H51z M53,23H7v-9h2c0.55,0,1-0.45,1-1v-2h40v2c0,0.55,0.45,1,1,1h2V23z    M23,2.84C23,2.38,23.38,2,23.84,2h12.33C36.62,2,37,2.38,37,2.84V5H23V2.84z M22,7h16h12v2H10V7H22z M2,10.16   C2,7.87,3.87,6,6.16,6H8v4v2H6H2V10.16z M3,14h2v10v26H3V14z M6.16,58C3.87,58,2,56.13,2,53.84V52h4h2v2v4H6.16z M10,57v-2h40v2H10   z M58,53.84c0,2.29-1.87,4.16-4.16,4.16H52v-4v-2h2h4V53.84z M57,50h-2V24V14h2V50z"></path><path d="M47.54,13.46c-0.01-0.01-0.01-0.01-0.02-0.01C46.61,12.56,45.37,12,44,12c-2.76,0-5,2.24-5,5s2.24,5,5,5s5-2.24,5-5   c0-1.37-0.56-2.61-1.45-3.51C47.54,13.48,47.54,13.47,47.54,13.46z M44,20c-1.65,0-3-1.35-3-3s1.35-3,3-3   c0.46,0,0.89,0.11,1.29,0.3l-1.99,1.99c-0.39,0.39-0.39,1.02,0,1.41C43.49,17.9,43.74,18,44,18s0.51-0.1,0.71-0.29l1.99-1.99   C46.89,16.11,47,16.54,47,17C47,18.65,45.65,20,44,20z"></path><path d="M30,12c-2.76,0-5,2.24-5,5s2.24,5,5,5c1.37,0,2.61-0.56,3.51-1.45c0.01-0.01,0.01-0.01,0.02-0.01s0.01-0.01,0.01-0.02   C34.44,19.61,35,18.37,35,17C35,14.24,32.76,12,30,12z M27,17c0-1.65,1.35-3,3-3s3,1.35,3,3c0,0.46-0.11,0.89-0.3,1.29l-1.99-1.99   c-0.39-0.39-1.02-0.39-1.41,0s-0.39,1.02,0,1.41l1.99,1.99C30.89,19.89,30.46,20,30,20C28.35,20,27,18.65,27,17z"></path><path d="M19.54,13.46c-0.01-0.01-0.01-0.01-0.02-0.01C18.61,12.56,17.37,12,16,12c-2.76,0-5,2.24-5,5s2.24,5,5,5s5-2.24,5-5   c0-1.37-0.56-2.61-1.45-3.51C19.54,13.48,19.54,13.47,19.54,13.46z M16,20c-1.65,0-3-1.35-3-3s1.35-3,3-3   c0.46,0,0.89,0.11,1.29,0.3l-1.99,1.99c-0.39,0.39-0.39,1.02,0,1.41C15.49,17.9,15.74,18,16,18s0.51-0.1,0.71-0.29l1.99-1.99   C18.89,16.11,19,16.54,19,17C19,18.65,17.65,20,16,20z"></path></g></svg>