<svg xmlns="http://www.w3.org/2000/svg" xmlns:xlink="http://www.w3.org/1999/xlink" version="1.1" x="0px" y="0px" viewBox="0 0 48 48" enable-background="new 0 0 48 48" xml:space="preserve"><g><path fill="#000000" d="M40.4,0.5H7.6c-0.7,0-1.4,0.6-1.4,1.4v44.3c0,0.7,0.6,1.4,1.4,1.4h32.9c0.7,0,1.4-0.6,1.4-1.4V1.9   C41.8,1.1,41.2,0.5,40.4,0.5z M24,4.7c3.2,0,5.8,2.6,5.8,5.8c0,3.2-2.6,5.7-5.8,5.7s-5.8-2.6-5.8-5.7C18.3,7.2,20.8,4.7,24,4.7z    M24,43.3c-5.8,0-10.4-4.7-10.4-10.4c0-5.8,4.7-10.4,10.4-10.4s10.4,4.7,10.4,10.4C34.4,38.7,29.8,43.3,24,43.3z"></path><circle fill="#000000" cx="24" cy="32.9" r="5.8"></circle></g></svg>